<?xml version="1.0" encoding="utf-8" ?><svg xmlns="http://www.w3.org/2000/svg" xmlns:xlink="http://www.w3.org/1999/xlink" width="2333" height="1333" viewBox="0 0 2333 1333"><path fill="#FEFEFE" transform="scale(1.30201 1.30201)" d="M467.755 220.044C480.767 218.631 520.344 220.521 535.642 220.551L607.277 220.439C624.252 220.411 641.146 219.853 657.999 221.804L658.921 575L637.438 574.987L445.404 574.999L444.568 353.37C444.52 316.57 443.447 257.904 446.857 222.673C453.611 220.588 460.744 220.4 467.755 220.044Z"/><path fill="#FEFEFE" transform="scale(1.30201 1.30201)" d="M296.224 335.644C337.375 335.036 378.533 335.195 419.678 336.123C418.482 362.704 419.314 396.06 419.41 422.915C419.842 473.616 419.787 524.319 419.247 575.018L394.406 575.054L270.935 575.741C269.951 550.761 270.945 518.958 271.003 493.524L271.038 335.976C279.233 336.044 287.984 335.762 296.224 335.644Z"/><path fill="#FEFEFE" transform="scale(1.30201 1.30201)" d="M832.818 403.763C849.078 401.072 872.357 414.17 875.743 430.658C882.218 462.183 879.44 496.253 879.853 528.357C880.105 547.935 880.052 568.071 878.926 587.608C876.52 615.82 865.382 622.773 840.469 629.561C816.724 629.258 798.522 620.894 794.417 595.807C790.621 572.601 791.407 550.821 791.324 527.572C791.216 497.46 790.288 467.296 793.964 437.319C796.567 414.805 812.395 407.121 832.818 403.763ZM845.226 609.943C850.975 605.947 857.565 601.586 858.576 594.264C860.178 582.664 860.081 569.894 860.402 558.119C861.183 531.596 861.156 505.055 860.32 478.534C859.989 467.584 859.768 456.737 858.881 445.816C857.144 424.433 845.595 422.386 826.852 422.956C821.754 426.175 815.191 430.008 814.309 436.412C811.324 458.06 812.125 480.536 811.787 502.378C811.367 529.444 811.933 556.497 812.598 583.536C813.097 603.812 823.955 616.32 845.226 609.943Z"/><path fill="#FEFEFE" transform="scale(1.30201 1.30201)" d="M1683.88 404.476C1701.43 402.631 1726.3 411.073 1728.88 430.584C1735.85 483.212 1734.33 540.429 1730.56 593.349C1728.94 616.224 1715.92 622.79 1695.68 627.375C1686.4 629.272 1672.37 625.049 1664.33 620.305C1645.32 609.101 1646.95 581.287 1646.26 561.32C1645.55 534.379 1645.53 507.424 1646.2 480.483C1647.03 443.994 1640.51 414.266 1683.88 404.476ZM1670 600.951C1676.45 607.063 1683.09 610.339 1692.23 609.751C1698.34 608.39 1704.93 607.075 1708.55 601.396C1714.78 591.622 1713.79 452.004 1709.95 436.259C1709.47 434.272 1708.83 432.318 1708.15 430.392C1701.51 423.883 1694.46 421.445 1685.11 421.941C1679.16 423.826 1673.5 425.781 1670.38 431.62C1660.76 449.661 1664.24 578.443 1670 600.951Z"/><path fill="#FEFEFE" transform="scale(1.30201 1.30201)" d="M150.547 428.113C182.544 427.39 216.807 427.955 248.992 427.896C248.005 445.418 248.775 472.142 248.95 489.664C249.321 518.051 249.211 546.442 248.619 574.824C237.92 575.583 224.035 575.139 213.07 575.119L150.453 575.011C150.457 528.352 149.044 474.088 150.547 428.113Z"/><path fill="#FEFEFE" transform="scale(1.30201 1.30201)" d="M921.579 405.716C938.629 404.319 960.862 404.551 974.701 415.832C985.351 424.513 986.669 439.697 986.622 452.521C986.542 473.99 990.218 504.503 976.343 522.666C966.467 535.596 939.319 536.325 924.197 537.556L924.396 579.078L924.181 624.062L905.009 624.14C905.916 588.575 905.039 555.935 904.759 520.512L904.638 406.121C910.288 406.149 915.937 406.014 921.579 405.716ZM924.338 519.757C937.319 519.893 949.942 520.213 960.992 512.225C967.764 494.346 978.705 437.045 954.006 426.503C947.724 423.821 931.834 424.405 924.217 424.516C924.295 453.913 925.495 491.018 924.338 519.757Z"/><path fill="#FEFEFE" transform="scale(1.30201 1.30201)" d="M1173.15 406.199L1191.17 406.095C1191.16 422.667 1191.88 440.019 1191.95 456.851C1192.16 512.242 1191.89 567.633 1191.14 623.019C1188.88 624.717 1175.57 624.068 1171.81 624.037C1166.4 604.991 1158.87 584.318 1152.67 565.203C1141.13 528.733 1129.19 492.391 1116.86 456.183C1116.6 473.15 1117.41 491.776 1117.49 508.996C1117.59 547.573 1117.47 586.15 1117.11 624.725L1099.56 624.645L1099.55 504.461C1099.5 471.785 1098.93 438.749 1100.62 406.132L1119.29 406.216C1126.16 433.772 1137.43 461.046 1146.07 488.107C1155.34 517.134 1162.85 547.339 1172.95 576.068C1173.6 554.762 1172.85 530.542 1172.77 508.894L1173.15 406.199Z"/><path fill="#FEFEFE" transform="scale(1.30201 1.30201)" d="M1579.02 403.786C1584.72 402.886 1597.51 404.806 1602.39 407.323C1628.39 420.736 1624.29 457.185 1623.5 481.507L1604.79 481.431C1604.91 465.331 1606.66 446.701 1599.79 431.7C1592.58 415.945 1564.36 421.157 1562.16 436.378C1558.75 460.022 1560.44 486.47 1560.14 510.577C1559.84 534.109 1559.99 558.397 1560.87 581.909C1561.94 606.088 1570.58 617.289 1596.93 605.884C1600.55 604.316 1603.15 596.91 1603.78 592.737C1604.74 576.565 1604.69 561.891 1604.7 545.661C1610.58 545.231 1618.25 545.307 1624.28 545.21C1625.91 565.672 1627.43 595.426 1615.34 613.298C1602.86 631.731 1572.96 633.145 1555.84 620.679C1546.83 614.282 1543.37 603.084 1542.52 592.05C1538.63 541.551 1539.92 488.38 1541.69 437.794C1542.45 416.277 1559.28 406.185 1579.02 403.786Z"/><path fill="#FEFEFE" transform="scale(1.30201 1.30201)" d="M346.325 632.7L375.597 632.758C390.738 655.508 410.301 692.236 424.103 716.544C441.989 688.765 457.648 660.494 475.188 632.821L504.048 632.745L503.63 734.365C497.017 734.393 490.391 734.724 483.782 734.997L483.837 676.465L484.661 653.622C473.198 671.104 462.927 689.488 451.905 707.224C447.469 714.362 438.598 729.496 433.047 735.261C426.446 735.137 419.159 734.593 412.512 734.225C409.464 730.407 400.941 714.303 397.913 709.035C387.325 690.585 376.591 672.22 365.712 653.94C364.289 678.957 365.081 709.084 365.168 734.37L346.207 734.382C345.451 701.873 346.03 665.445 346.325 632.7Z"/><path fill="#FEFEFE" transform="scale(1.30201 1.30201)" d="M578.328 632.802C586.861 632.724 595.394 632.757 603.926 632.899C624.379 664.409 646.97 701.837 665.662 734.356L643.09 734.331C637.726 726.665 632.454 717.193 627.661 709.028L602.438 708.982C585.95 708.886 569.463 709.119 552.985 709.68C548.258 718.037 543.363 726.3 538.305 734.462C530.877 734.833 522.836 734.869 515.353 735.045C534.282 701.084 557.854 666.082 578.328 632.802ZM563.59 692.299L591.281 692.258L619.137 692.207C612.702 681.151 598.485 655.816 589.61 648.281C581.074 663.035 572.401 677.708 563.59 692.299Z"/><path fill="#FEFEFE" transform="scale(1.30201 1.30201)" d="M122.899 631.393C139.828 628.083 171.727 637.413 187.463 643.038L187.456 661.847C160.244 651.358 96.5915 632.814 81.2984 670.8C78.0377 679.006 78.1796 688.173 81.6928 696.274C93.6641 724.29 135.399 724.184 159.778 715.233C168.254 712.121 171.958 703.549 174.885 695.854L127.531 695.846C120.606 693.779 122.317 686.115 122.459 679.97C146.178 679.508 169.903 679.519 193.621 680.002C193.552 693.007 194.343 707.069 185.759 717.606C175.154 730.481 159.041 735.558 142.988 737.433C110.052 741.28 62.3909 730.078 57.6717 690.864C56.0757 677.602 63.1461 660.685 71.4874 650.265C83.145 635.701 105.454 632.938 122.899 631.393Z"/><path fill="#FEFEFE" transform="scale(1.30201 1.30201)" d="M1039.05 406.555C1052.3 406.226 1063.98 406.104 1077.22 406.784L1077.19 425.375L1027.43 425.349L1028.15 503.985L1073.35 503.874L1072.93 521.758C1058.01 521.963 1043.09 522.017 1028.16 521.92C1028.19 531.399 1026.73 604.983 1028.41 607.323L1078.07 607.524L1077.53 624.81L1009.67 624.611C1008.57 552.766 1009.4 478.892 1009.59 406.94C1019.26 407.043 1029.35 406.722 1039.05 406.555Z"/><path fill="#FEFEFE" transform="scale(1.30201 1.30201)" d="M1364.6 406.184L1434.41 406.579C1433.68 413.527 1433.42 418.345 1433.34 425.334L1381.7 425.27L1381.71 503.889L1427.3 503.317L1427.18 521.681L1381.85 521.685L1381.84 578.954L1381.76 607.305L1434.16 607.398L1433.88 624.653C1411.32 623.987 1387.11 624.497 1364.12 624.032C1363.84 552.557 1362.81 477.342 1364.6 406.184Z"/><path fill="#FEFEFE" transform="scale(1.30201 1.30201)" d="M261.498 631.402C280.803 628.166 306.75 636.084 324.778 642.294C324.65 648.108 324.247 654.322 323.963 660.162C303.658 651.757 287.029 646.616 264.725 646.365C255.93 646.266 238.877 648.945 232.789 655.422C231.216 657.095 230.418 659.352 230.592 661.642C231.899 681.554 330.948 665.23 330.425 701.459C329.953 734.187 293.21 736.413 269.281 736.793C246.791 736.655 229.393 731.479 207.917 725.864C207.541 719.869 207.836 711.638 207.898 705.461C228.097 713.337 251.068 718.361 272.766 719.9C283.221 720.642 310.487 719.527 310.978 704.848C304.841 684.693 211.023 699.282 209.861 665.653C208.868 636.91 239.719 633.472 261.498 631.402Z"/><path fill="#FEFEFE" transform="scale(1.30201 1.30201)" d="M60.1254 484.843C82.4884 484.971 104.852 484.965 127.215 484.825C126.272 515.016 128.317 543.967 126.305 575L60.2663 575.017L60.1254 484.843Z"/><path fill="#FEFEFE" transform="scale(1.30201 1.30201)" d="M1274.11 406.59C1295.11 405.086 1321.84 405.895 1343.24 406.008C1342.89 412.383 1342.6 418.762 1342.37 425.143L1312.66 425.244L1312.57 611.993L1312.32 624.05C1305.91 624.208 1299.34 624.536 1292.92 624.779L1292.84 510.437C1292.84 482.439 1292.39 453.271 1293.01 425.397C1282.29 424.971 1271.57 424.686 1260.84 424.543L1260.23 406.873L1274.11 406.59Z"/><path fill="#FEFEFE" transform="scale(1.30201 1.30201)" d="M1454.93 406.862L1473.54 406.967L1473.46 607.03C1490.32 607.576 1508.39 607.376 1525.34 607.487L1525.21 624.136C1511.18 626.208 1471.01 624.489 1455 624.072L1454.93 406.862Z"/><path fill="#FEFEFE" transform="scale(1.30201 1.30201)" d="M654.461 628.528C657.748 632.298 661.015 636.085 664.264 639.889C666.704 636.943 669.219 634.061 671.806 631.244C675.115 631.539 673.818 631.125 676.748 633.117C679.448 637.56 678.149 644.981 675.263 648.961L673.926 648.894C672.049 646.336 671.855 645.846 670.809 642.839L668.363 641.944L665.362 642.717C661.033 643.814 659.266 644.969 655.813 642.911C654.06 639.81 654.504 632.443 654.461 628.528Z"/><path fill="#CDCBCC" transform="scale(1.30201 1.30201)" d="M671.806 631.244C675.115 631.539 673.818 631.125 676.748 633.117C679.448 637.56 678.149 644.981 675.263 648.961L673.926 648.894C672.049 646.336 671.855 645.846 670.809 642.839L668.363 641.944L668.83 641.355C672.065 637.231 672.409 636.22 671.806 631.244Z"/><path fill="#FEFEFE" transform="scale(1.30201 1.30201)" d="M637.1 630.981C651.786 631.322 649.223 640.918 647.044 651.466L646.242 651.569C642.051 646.068 647.7 639.308 637.1 630.981Z"/></svg>